<svg width="500" height="500" viewBox="0 0 500 500" fill="none" xmlns="http://www.w3.org/2000/svg">
<g clip-path="url(#clip0_2008_186)">
<path d="M439.839 260.837C440.64 269.287 440.252 277.509 437.611 285.777C435.457 292.523 435.198 299.863 433.181 306.668C431.08 313.753 428.379 320.766 425.035 327.351C420.577 336.127 415.667 344.742 410.17 352.901C404.756 360.935 398.449 368.377 392.373 375.95C389.284 379.801 386.134 383.688 382.505 387.005C368.715 399.611 355.347 412.69 340.013 423.543C325.119 434.085 310.613 445.172 295.805 455.838C290.787 459.452 285.381 462.532 280.127 465.815C271.404 471.267 262.726 476.8 253.855 482.001C252.458 482.82 249.696 482.793 248.32 481.94C232.237 471.958 216.089 462.054 200.38 451.502C185.041 441.2 170.007 430.416 155.202 419.357C148.357 414.245 142.33 408.026 136.015 402.219C129.223 395.972 122.177 389.948 115.886 383.225C109.164 376.041 102.753 368.471 97.0145 360.489C90.6824 351.68 84.8214 342.456 79.6119 332.944C76.1114 326.552 73.852 319.43 71.4913 312.48C69.1242 305.511 67.2177 298.379 65.3351 291.258C64.8025 289.244 65.0612 287.02 64.939 284.178C64.6606 282.351 64.4001 281.239 64.1396 280.126C64.0936 279.706 64.0477 279.287 63.9935 278.071C63.6564 265.811 63.1037 254.35 63.0432 242.885C62.9009 215.939 63.0193 188.991 62.9553 162.044C62.9482 159.077 62.441 156.111 62.1657 153.145C62.1123 127.838 62.0954 102.532 61.966 77.2262C61.9467 73.4408 63.3609 72.0163 67.2301 71.8313C84.4614 71.0073 101.717 70.311 118.887 68.7361C128.1 67.8911 137.227 65.6541 146.268 63.5178C157.35 60.8994 168.534 58.3919 179.247 54.6221C191.336 50.3681 203.231 45.3255 214.69 39.5877C225.89 33.9799 236.475 27.1313 247.24 20.6781C250.176 18.9183 252.347 19.1594 255.402 20.8763C271.594 29.975 287.668 39.393 304.441 47.3077C314.806 52.1988 326.212 55.1093 337.385 58.0057C352.272 61.8647 367.319 65.1981 382.428 68.0682C391.133 69.722 400.099 70.0004 408.944 70.9331C411.74 71.2279 414.523 71.6365 418.115 72.1843C422.225 72.5931 425.53 72.9461 428.839 73.0024C438.367 73.1647 438.999 73.7274 439.001 83.2765C439.01 129.999 438.988 176.722 439.04 223.445C439.043 226.576 439.563 229.706 439.843 232.837C439.871 235.97 439.9 239.103 439.779 243.082C439.699 249.564 439.769 255.201 439.839 260.837ZM88.9199 99.7386C88.6138 102.531 88.0441 105.322 88.0408 108.115C87.9859 154.57 87.9871 201.024 88.0385 247.479C88.0417 250.281 88.5709 253.081 88.921 256.816C89.4998 272.605 92.124 288.107 97.2711 302.984C102.547 318.232 110.217 332.263 120.082 345.254C130.501 358.974 142.553 371.045 155.392 382.252C168.233 393.46 181.813 403.9 195.649 413.873C212.337 425.902 229.587 437.157 246.746 448.516C248.34 449.571 251.644 449.929 253.12 448.988C270.428 437.963 288.038 427.308 304.564 415.186C322.144 402.292 339.161 388.508 355.433 374.001C365.579 364.956 374.477 354.309 382.835 343.527C389.455 334.988 395.134 325.511 399.904 315.798C405.62 304.157 409.542 291.661 410.908 278.655C411.767 270.476 411.73 262.199 411.992 253.962C412.34 243.005 412.586 232.045 413.001 220.146C413.045 181.553 413.1 142.96 413.096 104.367C413.096 102.928 412.528 101.489 411.344 100.07C402.231 98.765 393.071 97.7188 384.016 96.0886C372.864 94.0808 361.79 91.6282 350.698 89.2904C340.047 87.0453 329.254 85.2603 318.823 82.2376C309.11 79.4228 299.552 75.7656 290.359 71.5374C278.136 65.9159 266.406 59.2292 254.275 53.3946C252.331 52.4596 249.067 52.8921 246.988 53.8899C241.96 56.3022 237.401 59.6763 232.416 62.1933C225.992 65.4371 219.393 68.3556 212.765 71.1689C206.02 74.0319 199.308 77.152 192.298 79.1747C178.51 83.153 164.548 86.5431 150.611 89.9897C143.168 91.8305 135.669 93.5129 128.121 94.8491C119.117 96.443 110.054 97.7508 100.976 98.8542C97.1254 99.3223 93.1733 98.9553 88.9199 99.7386Z" fill="#2A3347"/>
<path d="M442 232C442 242.632 442 252.765 442 262.898C441.78 262.897 441.56 262.896 441.34 262.895C441.34 200.566 441.34 138.237 441.34 75.9076C441.56 75.9068 441.78 75.9061 442 75.9053C442 127.77 442 179.635 442 232Z" fill="#090001"/>
<path d="M439.879 232.383C439.564 229.706 439.044 226.575 439.04 223.444C438.989 176.722 439.011 129.999 439.002 83.2763C439 73.7272 438.368 73.1645 428.84 73.0022C425.531 72.9459 422.226 72.5929 418.541 72.261C423.157 72.0783 428.152 71.9548 433.147 71.9551C439.831 71.9554 439.935 72.048 439.97 78.5498C440.021 88.2088 439.999 97.8682 439.993 107.527C439.97 148.995 439.942 190.462 439.879 232.383Z" fill="#1E2D44"/>
<path d="M62.1346 153.601C62.4412 156.111 62.9485 159.077 62.9556 162.044C63.0196 188.991 62.9012 215.939 63.0435 242.885C63.104 254.35 63.6566 265.811 63.9681 277.755C62.9794 272.34 61.3256 266.46 61.1905 260.545C60.9639 250.624 61.9334 240.683 61.9938 230.748C62.1489 205.185 62.0817 179.621 62.1346 153.601Z" fill="#172F4A"/>
<path d="M60.9996 114C60.9996 141.357 60.9996 168.213 60.9996 195.07C60.7413 195.068 60.483 195.067 60.2246 195.066C60.2246 155.712 60.2246 116.357 60.2246 77.0026C60.483 76.9993 60.7413 76.996 60.9996 76.9927C60.9996 89.1618 60.9996 101.331 60.9996 114Z" fill="#090001"/>
<path d="M439.872 260.384C439.769 255.201 439.7 249.564 439.74 243.55C439.868 248.759 439.886 254.345 439.872 260.384Z" fill="#1E2D44"/>
<path d="M64.123 280.479C64.4008 281.238 64.6612 282.351 64.9458 283.811C64.6818 283.05 64.3938 281.94 64.123 280.479Z" fill="#172F4A"/>
<path d="M89.0938 99.353C89.177 103.616 89.012 108.265 89.0078 112.913C88.9644 160.265 88.9472 207.616 88.8891 255.425C88.5711 253.081 88.0419 250.28 88.0387 247.479C87.9873 201.024 87.9861 154.569 88.041 108.115C88.0443 105.322 88.614 102.53 89.0938 99.353Z" fill="#19344D"/>
<path d="M412.939 220.616C412.585 219.671 412.041 218.257 412.04 216.841C412.017 178.218 412.05 139.595 412.15 100.511C412.529 101.489 413.096 102.928 413.096 104.366C413.1 142.96 413.046 181.553 412.939 220.616Z" fill="#090001"/>
<path d="M159.81 189.892C161.271 188.601 162.732 187.311 164.793 185.989C166.588 185.353 167.784 184.749 168.979 184.144C177.083 180.35 185.686 182.427 194.712 182.2C196.233 181.96 197.118 181.529 198.003 181.097C198.003 181.097 198.409 180.999 198.794 180.74C199.44 171.594 199.701 162.707 199.962 153.821C199.11 132.767 215.303 113.075 232.538 105.646C246.228 99.7443 260.262 99.0966 273.845 103.144C289.477 107.802 301.541 118.197 307.998 133.678C310.44 139.532 311.399 146.003 313.035 153.075C313.019 161.73 313.055 169.502 312.956 177.273C312.913 180.642 314.377 182.052 317.735 181.988C324.511 181.859 331.291 181.898 338.069 181.868C342.543 183.88 347.337 185.406 351.38 188.071C354.191 189.924 355.969 193.343 358.208 196.062C357.882 196.656 357.556 197.249 357.23 197.843C353.529 197.217 349.764 196.838 346.136 195.923C328.342 191.432 312.662 195.621 299.958 208.505C294.89 213.645 291.965 220.674 292.032 228.633C292.103 237.123 291.316 245.873 297.591 252.519C301.595 256.76 306.883 259.788 311.861 264.01C312.151 265.518 312.176 266.377 312.136 267.201C312.071 267.165 312.022 267.025 311.868 267.239C311.504 267.739 311.294 268.025 310.887 268.563C306.57 272.885 302.451 276.952 298.114 281.238C297.614 281.759 297.332 282.061 296.906 282.562C296.271 283.2 295.782 283.638 295.038 284.229C294.208 284.909 293.632 285.435 292.767 286.134C288.345 290.141 284.212 293.976 280.079 297.811C279.568 297.444 279.057 297.078 278.546 296.712C279.416 293.643 280.433 290.607 281.132 287.5C284.679 271.732 279.359 260.139 267.231 252.706C257.952 247.019 246.579 244.514 235.891 241.453C229.591 239.649 224.161 235.69 224.076 230.562C223.98 224.787 228.098 220.846 235.847 220.198C245.571 219.385 255.169 220.064 263.87 225.212C267.133 227.143 269.35 227.025 270.59 222.879C272.354 216.982 274.406 211.171 276.562 204.631C274.709 203.434 272.709 201.612 270.357 200.738C266.141 199.171 261.584 198.507 257.401 196.873C247.018 192.816 236.711 193.353 226.148 196.099C214.204 199.204 205.748 206.387 199.491 216.993C197.747 216.995 196.405 217.967 195.051 217.5C195.034 213.928 195.051 210 195.051 207C195.051 204 195.051 200.5 195.051 197C193.389 196.522 189.681 195.826 188.261 195.821C181.818 195.803 175.374 195.987 168.931 195.969C164.619 195.957 159.718 196.608 159.81 189.892ZM226.588 182.05C226.588 182.05 226.955 182.124 227.537 182.587C229.597 183.047 231.654 183.891 233.718 183.906C248.288 184.017 262.861 184.081 277.429 183.858C280.636 183.808 283.824 182.547 287.006 180.927C286.514 171.323 286.25 161.7 285.47 152.12C284.603 141.476 277.323 134.708 268.958 130.139C260.695 125.627 251.329 126.184 242.789 130.935C235.178 135.168 229.496 141.124 226.842 150.384C226.574 151.001 226.306 151.618 225.976 152.667C225.976 152.667 225.891 153.094 225.647 153.862C225.837 163.246 226.026 172.631 226.588 182.05Z" fill="#293347"/>
<path d="M346.962 315.872C348.729 315.229 350.497 314.587 352.873 314.085C354.287 314.731 355.092 315.237 355.898 315.743C352.714 321.096 349.799 326.633 346.284 331.759C340.693 339.914 334.995 347.933 326.771 353.946C317.662 360.606 309.455 368.529 300.189 374.938C288.786 382.824 276.695 389.715 264.902 397.036C264.195 397.475 263.47 397.889 262.789 398.365C256.77 402.569 255.477 402.24 249.589 398.362C242.308 393.565 234.373 389.747 227.181 384.832C216.017 377.202 204.768 369.565 194.44 360.879C184.911 352.865 176.11 343.852 167.862 334.508C163.996 330.127 162.21 323.919 159.428 318.567C158.747 317.256 157.859 316.053 157.312 314.363C159.705 312.998 161.852 312.071 164.028 310.686C164.117 307.818 164.176 305.409 164.537 302.834C165.878 300.383 167.521 298.178 167.834 295.798C168.48 290.892 168.572 285.893 168.616 280.93C168.743 266.682 168.931 252.428 168.603 238.188C168.539 235.431 166.249 232.725 164.867 229.681C163.789 227.306 164 226 164 224C165 224 164.5 224 165.5 224C166.66 223.996 165.5 224 166.5 224C167.14 223.999 166.569 224 167.5 224C176.671 223.967 185.303 224.031 194.209 224.222C195.232 225.266 196.049 226.099 196.907 227.401C197.314 233.538 197.68 239.206 198.136 245.171C198.785 246.307 199.343 247.146 200.084 248.276C206.798 260.461 218.327 264.503 230.348 267.94C236.843 269.797 243.332 271.815 249.57 274.38C254.156 276.266 255.186 280.999 253.621 284.974C252.536 287.729 249.33 290.278 246.464 291.549C242.449 293.329 237.903 294.034 233.514 294.796C231.61 295.127 229.301 294.942 227.59 294.125C225.102 292.936 223.075 290.824 220.699 289.353C215.301 286.01 210.703 286.77 206.053 291.393C200.709 296.705 195.095 301.76 189.984 307.283C188.313 309.088 187.279 311.934 186.951 314.436C186.313 319.288 189.173 322.852 192.459 326.102C207.577 341.054 222.653 356.049 237.753 371.019C244.079 377.29 251.142 383.217 260.508 379.715C266.407 377.51 271.576 372.928 276.537 368.774C280.598 365.373 283.73 360.887 287.52 357.131C294.466 350.249 301.592 343.55 308.646 336.777C314.472 331.183 320.301 325.593 326.41 319.853C327.503 319.025 328.317 318.346 329.13 317.666C329.583 317.766 330.037 317.866 331.155 318.125C334.515 317.885 337.211 317.486 339.907 317.088C340.343 317.029 340.78 316.971 341.832 316.96C343.952 316.629 345.457 316.25 346.962 315.872Z" fill="#293347"/>
<path d="M328.873 269.001C333.729 270.954 338.586 272.907 343.995 274.969C344.547 275.078 344.957 275.035 344.957 275.035C344.957 275.035 344.962 275.04 344.981 275.316C345.303 275.742 345.606 275.891 345.909 276.041C345.909 276.041 345.894 276.09 345.9 276.35C346.263 276.975 346.621 277.341 346.979 277.708C347.124 277.797 347.27 277.887 347.488 278.417C348.293 282.609 346.649 285.198 343.913 287.681C338.95 292.185 334.298 297.032 329.515 301.736C326 305.566 322.485 309.397 318.562 313.591C316.764 315.58 315.372 317.204 313.64 318.932C305.996 326.312 298.651 333.548 291.398 340.873C283.225 349.127 275.006 357.341 267.057 365.807C262.602 370.552 253.448 372.422 249.135 368.497C242.988 362.903 237.157 356.96 231.233 351.123C221.251 341.285 211.492 331.209 201.262 321.638C195.663 316.4 195.033 314.364 200.126 308.97C203.529 305.365 206.92 301.709 210.674 298.492C212.462 296.96 214.734 294.981 217.53 297.947C223.785 304.584 230.281 310.996 236.744 317.435C242.917 323.585 249.172 329.651 255.393 335.756C258.895 332.627 262.096 330.005 265.024 327.106C274.517 317.705 283.961 308.252 293.326 298.723C302.995 288.885 312.549 278.934 322.577 269.017C324.957 269.001 326.915 269.001 328.873 269.001Z" fill="#BE383A"/>
<path d="M163 222C163 223 163.102 223.5 163 225C163 228 163 230.5 162.898 233.451C162.785 259.256 162.687 284.59 162.33 309.992C160.037 310.375 158.003 310.691 155.969 311.007C150.621 311.188 145.272 311.473 139.924 311.481C138.411 311.484 136.897 310.677 135.174 309.617C134.977 281.89 135.003 254.787 134.991 227.685C134.989 221.964 134.5 222.959 129.081 222.97C122.275 222.985 115.468 222.932 108.663 223.04C104.74 223.103 102.816 221.527 102.943 217.434C103.181 209.811 103.25 202.181 103.979 194.303C116.396 193.99 128.173 194.363 140 194.303C142.609 194.315 145.5 194.303 147.871 193.953C152.292 194.418 156.155 193.638 159.461 189.973C159.717 196.608 164.618 195.957 168.93 195.969C175.373 195.987 181.817 195.803 188.26 195.821C189.68 195.825 191.343 195.554 193 196.5C193.2 205.179 192.917 213.943 192.422 221.948C182.591 221.958 172.376 221.994 163 222Z" fill="#293647"/>
<path d="M370.226 259.842C364.705 252.019 356.391 248.857 347.738 245.963C350.519 242.717 353.254 239.843 355.989 236.97C355.989 236.97 356.01 237.008 356.264 236.886C357.01 236.166 357.501 235.568 357.992 234.969C357.992 234.969 358.015 235.009 358.205 234.876C358.66 234.536 358.86 234.279 358.996 233.971C358.996 233.971 359.014 234.014 359.204 233.879C359.66 233.536 359.86 233.279 359.996 232.971C359.996 232.971 360.009 233.015 360.264 232.89C361.01 232.166 361.501 231.568 361.992 230.969C361.992 230.969 362.013 231.012 362.203 230.874C362.657 230.523 362.858 230.261 363.005 229.98C363.013 230.008 362.955 229.999 363.161 229.861C363.63 229.508 363.834 229.249 363.991 228.972C364 228.999 363.946 228.982 364.159 228.848C364.586 228.456 364.801 228.2 365.016 227.972C365.017 228.001 364.966 227.974 365.284 227.857C367.732 225.473 369.862 223.205 371.991 220.937C371.991 220.937 372.013 220.999 372.171 220.841C372.556 220.438 372.784 220.193 373.011 219.947C373.011 219.947 372.999 220.013 373.258 219.872C374.343 218.797 375.169 217.865 375.995 216.932C375.995 216.932 375.996 216.999 376.291 216.889C380.076 214.805 382.669 216.078 385.329 218.686C388.703 221.995 392.466 224.907 396.062 227.99C396.062 227.99 396.001 227.998 396.088 228.347C396.458 230.488 396.742 232.279 397.027 234.069C397.027 234.069 396.998 234.008 396.838 234.163C396.448 234.564 396.218 234.811 395.988 235.058C395.988 235.058 395.999 234.984 395.789 235.155C395.052 235.906 394.525 236.486 393.998 237.067C393.998 237.067 393.983 237 393.826 237.156C393.442 237.558 393.217 237.804 392.991 238.049C392.991 238.049 392.999 237.985 392.741 238.13C391.657 239.203 390.831 240.131 390.006 241.06C390.006 241.06 389.998 240.997 389.74 241.135C388.657 242.201 387.832 243.128 387.007 244.055C387.007 244.055 386.983 243.998 386.823 244.154C386.417 244.536 386.194 244.78 385.993 245.045C385.993 245.045 385.998 244.983 385.737 245.128C384.653 246.202 383.83 247.13 383.006 248.059C383.006 248.059 382.997 247.997 382.739 248.137C381.655 249.209 380.83 250.142 380.004 251.074C380.004 251.074 379.988 251.003 379.833 251.161C379.448 251.565 379.218 251.811 378.988 252.057C378.988 252.057 378.997 251.985 378.788 252.158C378.052 252.913 377.523 253.496 376.995 254.078C376.995 254.078 376.983 253.997 376.832 254.158C376.45 254.565 376.219 254.812 375.987 255.058C375.987 255.058 376.003 254.988 375.748 255.133C374.664 256.209 373.833 257.141 373.003 258.073C373.003 258.073 373.002 258 372.802 258.133C372.063 258.748 371.524 259.229 370.798 259.754C370.61 259.799 370.226 259.842 370.226 259.842Z" fill="#BC373A"/>
<path d="M353.08 225.168C348.757 229.937 344.596 234.867 340.062 239.427C336.146 243.365 329.361 243.585 324.616 240.429C317.873 235.945 316.648 233.099 318.952 226.471C321.001 220.573 326.46 219.835 331.451 219.111C338.838 218.04 345.944 219.888 353.066 223.138C353.226 224.215 353.153 224.692 353.08 225.168Z" fill="#273347"/>
<path d="M370.314 260.162C370.226 259.842 370.609 259.799 371.044 259.908C371.953 260.333 372.428 260.649 372.903 260.965C379.83 276.142 379.478 290.962 369.33 304.481C365.986 308.936 360.573 311.838 356.002 315.597C355.092 315.237 354.287 314.731 353.219 313.99C360.731 309.429 367.728 304.261 371.604 295.894C375.75 286.943 376.614 277.823 372.882 268.457C371.855 265.879 371.219 263.145 370.314 260.162Z" fill="#224766"/>
<path d="M91.0001 194C91.0001 216.95 91.0001 239.399 91.0001 261.849C90.7862 261.849 90.5723 261.849 90.3584 261.849C90.3584 208.551 90.3584 155.253 90.3584 101.955C90.5723 101.954 90.7862 101.953 91.0001 101.951C91.0001 132.468 91.0001 162.984 91.0001 194Z" fill="#090001"/>
<path d="M353.345 225.313C353.154 224.692 353.226 224.215 353.373 223.388C356.316 224.217 359.185 225.397 362.786 226.878C365.006 220.167 367.481 213.734 369.101 207.092C369.537 205.305 367.376 202.884 366.483 200.922C371.496 201.056 373.58 203.961 371.967 208.967C370.558 213.337 369.293 217.753 367.971 222.548C367.978 222.946 368.003 222.972 367.839 223C367.466 223.377 367.256 223.727 366.902 224.368C366.161 225.764 365.564 226.869 364.966 227.975C364.966 227.975 365.017 228.002 364.765 228.063C364.323 228.41 364.135 228.697 363.946 228.983C363.946 228.983 364 229 363.738 229.05C363.302 229.4 363.129 229.7 362.955 229.999C362.955 229.999 363.013 230.009 362.764 229.999C362.515 229.99 362.042 230.09 362.042 230.09C359.231 228.546 356.421 227.001 353.345 225.313Z" fill="#284E6A"/>
<path d="M329.785 301.862C334.297 297.032 338.95 292.185 343.913 287.68C346.649 285.197 348.292 282.609 347.724 278.516C349.952 282.477 349.883 286.426 345.85 289.617C340.606 293.767 335.322 297.867 329.785 301.862Z" fill="#23314E"/>
<path d="M396.006 227.645C392.467 224.907 388.704 221.995 385.329 218.686C382.669 216.078 380.076 214.805 376.259 216.886C378.671 211.414 380.507 210.933 384.48 215.01C388.389 219.023 392.133 223.197 396.006 227.645Z" fill="#C14E44"/>
<path d="M337.755 181.584C331.29 181.898 324.511 181.859 317.734 181.988C314.376 182.052 312.913 180.642 312.956 177.273C313.055 169.502 313.018 161.73 313.083 153.491C313.42 158.24 313.908 163.454 313.96 168.672C314.084 180.999 314 180.978 326.54 181.014C330.174 181.024 333.808 181.2 337.755 181.584Z" fill="#090001"/>
<path d="M313.98 318.829C315.372 317.204 316.763 315.58 318.507 313.935C322.061 315.038 325.264 316.162 328.798 317.476C328.316 318.346 327.503 319.025 326.144 319.733C321.726 319.451 317.853 319.14 313.98 318.829Z" fill="#203656"/>
<path d="M328.551 268.837C326.915 269.001 324.957 269.001 322.25 268.904C318.4 268.283 315.301 267.76 312.201 267.236C312.176 266.377 312.151 265.518 312.119 264.229C317.484 265.424 322.857 267.049 328.551 268.837Z" fill="#1C3C59"/>
<path d="M199.691 154.157C199.701 162.707 199.44 171.594 199 180.702C199.021 172.114 199.221 163.304 199.691 154.157Z" fill="#102747"/>
<path d="M355.643 237.018C353.254 239.844 350.519 242.717 347.508 245.754C347.232 245.918 347.011 245.903 346.93 245.598C346.888 244.893 346.927 244.492 346.966 244.091C349.743 241.749 352.52 239.407 355.643 237.018Z" fill="#C65D50"/>
<path d="M156.005 311.343C158.003 310.691 160.037 310.375 162.558 310.205C163.363 310.615 163.681 310.88 163.998 311.144C161.852 312.072 159.705 312.999 157.213 314.053C156.592 313.347 156.316 312.513 156.005 311.343Z" fill="#102747"/>
<path d="M365.284 227.858C365.563 226.869 366.16 225.764 367.123 224.244C367.66 223.543 367.831 223.257 368.002 222.972C368.002 222.972 367.978 222.946 367.972 222.96C369.09 222.329 370.214 221.685 371.664 220.989C369.862 223.205 367.732 225.473 365.284 227.858Z" fill="#C14E44"/>
<path d="M397.363 234.008C396.743 232.279 396.458 230.488 396.095 228.318C398.962 229.273 401.756 230.65 397.363 234.008Z" fill="#C14E44"/>
<path d="M339.498 317.056C337.211 317.486 334.515 317.885 331.497 318.189C333.813 317.737 336.451 317.38 339.498 317.056Z" fill="#203656"/>
<path d="M346.585 315.896C345.457 316.251 343.952 316.629 342.157 316.908C343.315 316.511 344.762 316.215 346.585 315.896Z" fill="#203656"/>
<path d="M168.659 184.184C167.783 184.748 166.588 185.353 165.127 185.894C166.021 185.295 167.181 184.759 168.659 184.184Z" fill="#293647"/>
<path d="M197.701 181.192C197.117 181.529 196.232 181.96 195.18 182.238C195.808 181.818 196.604 181.553 197.701 181.192Z" fill="#293647"/>
<path d="M375.657 216.988C375.17 217.865 374.344 218.798 373.227 219.862C373.729 219.011 374.523 218.027 375.657 216.988Z" fill="#C14E44"/>
<path d="M373.341 258.012C373.833 257.141 374.664 256.209 375.783 255.141C375.275 255.986 374.477 256.969 373.341 258.012Z" fill="#C14E44"/>
<path d="M383.346 248.006C383.83 247.13 384.654 246.202 385.766 245.14C385.265 245.989 384.475 246.971 383.346 248.006Z" fill="#C14E44"/>
<path d="M380.342 251.013C380.83 250.142 381.655 249.209 382.769 248.141C382.265 248.988 381.472 249.969 380.342 251.013Z" fill="#C14E44"/>
<path d="M387.346 244C387.832 243.128 388.657 242.201 389.771 241.14C389.268 241.985 388.476 242.965 387.346 244Z" fill="#C14E44"/>
<path d="M390.345 241.004C390.832 240.131 391.657 239.203 392.772 238.14C392.268 238.987 391.475 239.967 390.345 241.004Z" fill="#C14E44"/>
<path d="M394.266 237.084C394.526 236.487 395.053 235.906 395.827 235.161C395.56 235.697 395.047 236.398 394.266 237.084Z" fill="#C14E44"/>
<path d="M372.935 260.595C372.429 260.649 371.954 260.333 371.232 259.863C371.525 259.229 372.064 258.748 372.839 258.133C373.039 258.741 373.002 259.483 372.935 260.595Z" fill="#C14E44"/>
<path d="M377.315 254.006C377.523 253.496 378.052 252.913 378.825 252.163C378.591 252.641 378.113 253.287 377.315 254.006Z" fill="#C14E44"/>
<path d="M361.671 231.02C361.501 231.568 361.01 232.167 360.244 232.879C360.43 232.352 360.89 231.711 361.671 231.02Z" fill="#C65D50"/>
<path d="M357.671 235.02C357.502 235.568 357.011 236.167 356.245 236.879C356.43 236.352 356.89 235.711 357.671 235.02Z" fill="#C65D50"/>
<path d="M346.862 244.207C346.927 244.492 346.889 244.893 346.82 245.59C346.78 245.366 346.768 244.845 346.862 244.207Z" fill="#47704D"/>
<path d="M346.857 277.499C346.62 277.342 346.263 276.976 345.925 276.346C346.208 276.485 346.472 276.888 346.857 277.499Z" fill="#47704C"/>
<path d="M345.754 275.873C345.606 275.892 345.303 275.742 344.978 275.325C345.175 275.268 345.39 275.484 345.754 275.873Z" fill="#47704C"/>
<path d="M344.854 275.015C344.956 275.035 344.547 275.078 344.354 275.018C344.359 274.946 344.556 274.958 344.854 275.015Z" fill="#47704C"/>
<path d="M358.759 234.066C358.86 234.279 358.66 234.537 358.184 234.87C358.155 234.718 358.338 234.439 358.759 234.066Z" fill="#C65D50"/>
<path d="M396.226 234.946C396.218 234.811 396.448 234.565 396.87 234.152C396.862 234.268 396.663 234.551 396.226 234.946Z" fill="#C14E44"/>
<path d="M359.759 233.066C359.86 233.279 359.66 233.537 359.184 233.87C359.155 233.718 359.338 233.439 359.759 233.066Z" fill="#C65D50"/>
<path d="M372.775 220.058C372.784 220.193 372.557 220.438 372.14 220.848C372.146 220.731 372.342 220.449 372.775 220.058Z" fill="#C14E44"/>
<path d="M376.226 254.946C376.219 254.812 376.45 254.566 376.873 254.152C376.864 254.268 376.664 254.551 376.226 254.946Z" fill="#C14E44"/>
<path d="M362.015 230.316C362.042 230.09 362.515 229.989 362.756 229.971C362.858 230.262 362.658 230.523 362.181 230.866C361.969 230.996 361.988 230.542 362.015 230.316Z" fill="#C65D50"/>
<path d="M379.226 251.945C379.218 251.811 379.448 251.565 379.869 251.152C379.861 251.268 379.662 251.551 379.226 251.945Z" fill="#C14E44"/>
<path d="M393.228 237.941C393.217 237.804 393.442 237.558 393.859 237.151C393.855 237.271 393.66 237.552 393.228 237.941Z" fill="#C14E44"/>
<path d="M386.229 244.938C386.195 244.78 386.418 244.536 386.855 244.151C386.852 244.271 386.659 244.551 386.229 244.938Z" fill="#C14E44"/>
<path d="M286.016 181.896C286.184 181.893 286.351 181.891 286.77 181.867C283.824 182.548 280.636 183.809 277.429 183.858C262.861 184.081 248.288 184.018 233.718 183.907C231.654 183.891 229.597 183.047 227.719 182.318C247.272 181.998 266.644 181.947 286.016 181.896Z" fill="#1B314A"/>
<path d="M285.712 181.604C266.643 181.947 247.271 181.997 227.427 182.086C226.955 182.124 226.587 182.05 226.335 181.577C226.102 178.048 226.121 174.992 226.14 171.935C226.591 174.656 227.041 177.376 227.693 181.312C246.718 181.312 266.063 181.312 285.712 181.604Z" fill="#090001"/>
<path d="M226.289 171.551C226.122 174.991 226.102 178.048 226.149 181.56C226.025 172.631 225.836 163.246 225.769 153.478C226.073 159.118 226.255 165.143 226.289 171.551Z" fill="#1B314A"/>
<path d="M194.963 219.042C194.984 218.588 195.004 218.133 195.044 217.338C196.404 216.996 197.746 216.996 199.49 216.993C198 219.5 197.5 224 197 227.5C196.107 227.035 195.181 225.37 194.17 224C193.989 223.029 194.052 222.491 194.064 222.057C194.064 222.057 194.056 222.026 194.17 221.738C194.51 220.647 194.737 219.845 194.963 219.042Z" fill="#293647"/>
<path d="M227.003 150.088C226.929 150.514 226.693 151.234 226.247 152.095C226.306 151.618 226.574 151.001 227.003 150.088Z" fill="#1B314A"/>
<path d="M295.038 284.229C294.726 284.626 294.161 285.175 293.325 285.843C293.631 285.435 294.208 284.909 295.038 284.229Z" fill="#1C3C59"/>
<path d="M298.114 281.238C298.061 281.33 297.789 281.641 297.284 282.157C297.332 282.061 297.613 281.759 298.114 281.238Z" fill="#1C3C59"/>
<path d="M311.868 267.239C311.848 267.335 311.673 267.646 311.292 268.133C311.294 268.024 311.504 267.739 311.868 267.239Z" fill="#1C3C59"/>
<path d="M163.999 226.5C165.263 229.23 168.539 235.431 168.602 238.188C168.931 252.428 168.742 266.682 168.616 280.93C168.572 285.893 168.48 290.892 167.834 295.798C167.52 298.178 165.878 300.383 164.5 302.366C164.091 279.062 164.019 256.06 164.065 232.755C164.068 231.265 163.934 227.5 163.999 226.5Z" fill="#293647"/>
<path d="M198.137 245.171C198.631 245.707 199.215 246.54 199.85 247.679C199.343 247.146 198.785 246.307 198.137 245.171Z" fill="#293647"/>
<path d="M363.162 229.861C363.129 229.699 363.302 229.399 363.729 229.022C363.835 229.249 363.63 229.508 363.162 229.861Z" fill="#C65D50"/>
<path d="M364.159 228.848C364.135 228.696 364.324 228.41 364.764 228.034C364.802 228.2 364.587 228.457 364.159 228.848Z" fill="#C65D50"/>
<path d="M367.839 223C367.831 223.258 367.66 223.543 367.267 223.953C367.256 223.727 367.466 223.377 367.839 223Z" fill="#47704C"/>
<path d="M264.441 312.045C264.704 317.214 257.898 322.727 253.614 320.962C252.53 320.516 251.093 319.431 250.996 318.514C250.902 317.625 252.123 316.077 253.111 315.685C256.737 314.245 260.506 313.165 264.441 312.045Z" fill="#1F324A"/>
<path d="M194.843 219.33C194.737 219.845 194.51 220.647 194.154 221.736C194.257 221.221 194.49 220.42 194.843 219.33Z" fill="#102747"/>
</g>
<defs>
<clipPath id="clip0_2008_186">
<rect width="500" height="500" fill="white"/>
</clipPath>
</defs>
</svg>
